<svg xmlns="http://www.w3.org/2000/svg" viewBox="0 0 300 200" fill="none">
  <!-- 手のひら -->
  <path d="M100 140 Q90 110 100 85 Q110 65 125 80 L125 55 Q135 45 140 60 L140 50 Q150 40 155 55 L155 52 Q165 44 168 60 L170 85 Q180 75 185 90 L185 120 Q185 160 150 170 L115 170 Q95 165 100 140Z" fill="#FFCC80" opacity="0.7"/>

  <!-- ハート -->
  <path d="M130 90 C130 78 145 73 145 83 C145 73 160 78 160 90 C160 108 145 118 145 118 C145 118 130 108 130 90Z" fill="#FF53B0" opacity="0.8"/>

  <!-- 小さなハート -->
  <path d="M170 60 C170 55 176 53 176 57 C176 53 182 55 182 60 C182 67 176 71 176 71 C176 71 170 67 170 60Z" fill="#FF85C8" opacity="0.5"/>
  <path d="M85 70 C85 65 91 63 91 67 C91 63 97 65 97 70 C97 77 91 81 91 81 C91 81 85 77 85 70Z" fill="#FFB8DA" opacity="0.4"/>

  <!-- キラキラ -->
  <polygon points="200,50 203,58 211,59 205,64 207,72 200,67 193,72 195,64 189,59 197,58" fill="#FFD700" opacity="0.6"/>
  <polygon points="80,130 82,135 88,136 84,139 85,145 80,142 75,145 76,139 72,136 78,135" fill="#FFD700" opacity="0.4"/>
  <polygon points="210,120 212,125 218,126 214,129 215,135 210,132 205,135 206,129 202,126 208,125" fill="#FFD700" opacity="0.5"/>
</svg>
