<svg xmlns="http://www.w3.org/2000/svg" viewBox="0 0 400 260" fill="none">
  <!-- 背景の丸 -->
  <circle cx="200" cy="130" r="100" fill="#FFF0F7" opacity="0.5"/>

  <!-- 葉っぱ -->
  <path d="M100 180 Q120 120 160 140 Q130 160 100 180Z" fill="#81C784" opacity="0.6"/>
  <path d="M300 170 Q320 110 350 135 Q325 155 300 170Z" fill="#A5D6A7" opacity="0.5"/>
  <line x1="100" y1="180" x2="135" y2="128" stroke="#66BB6A" stroke-width="1.5" opacity="0.4"/>

  <!-- ハサミ -->
  <circle cx="175" cy="80" r="10" stroke="#FF53B0" stroke-width="2.5" fill="none"/>
  <circle cx="175" cy="106" r="10" stroke="#FF53B0" stroke-width="2.5" fill="none"/>
  <line x1="175" y1="90" x2="200" y2="130" stroke="#FF53B0" stroke-width="2.5"/>
  <line x1="175" y1="96" x2="200" y2="130" stroke="#FF53B0" stroke-width="2.5"/>

  <!-- クレヨン -->
  <rect x="220" y="65" width="12" height="60" rx="2" fill="#FF53B0" transform="rotate(15 226 95)"/>
  <rect x="220" y="60" width="12" height="10" rx="2" fill="#d63a95" transform="rotate(15 226 65)"/>
  <rect x="245" y="70" width="12" height="55" rx="2" fill="#FFD700" transform="rotate(-10 251 97)"/>
  <rect x="245" y="65" width="12" height="10" rx="2" fill="#FFC107" transform="rotate(-10 251 70)"/>
  <rect x="270" y="75" width="12" height="50" rx="2" fill="#4CAF50" transform="rotate(5 276 100)"/>
  <rect x="270" y="70" width="12" height="10" rx="2" fill="#388E3C" transform="rotate(5 276 75)"/>

  <!-- 折り紙の鶴（簡略化） -->
  <path d="M130 200 L155 175 L165 195 L155 190 Z" fill="#FF85C8" opacity="0.7"/>
  <path d="M155 175 L180 180 L165 195 Z" fill="#FFB8DA" opacity="0.7"/>
  <line x1="130" y1="200" x2="115" y2="195" stroke="#FF85C8" stroke-width="1.5" opacity="0.6"/>

  <!-- 星 -->
  <polygon points="320,60 323,70 334,71 326,78 328,88 320,82 312,88 314,78 306,71 317,70" fill="#FFD700" opacity="0.6"/>
  <polygon points="90,90 92,96 99,97 94,101 95,108 90,104 85,108 86,101 81,97 88,96" fill="#FFD700" opacity="0.4"/>

  <!-- 季節の花 -->
  <circle cx="320" cy="200" r="8" fill="#FF53B0" opacity="0.4"/>
  <circle cx="312" cy="193" r="8" fill="#FF85C8" opacity="0.4"/>
  <circle cx="328" cy="193" r="8" fill="#FFB8DA" opacity="0.4"/>
  <circle cx="320" cy="196" r="5" fill="#FFD700" opacity="0.6"/>
</svg>
